<?xml version="1.0" encoding="iso-8859-1"?>
<!-- Generator: Adobe Illustrator 19.0.0, SVG Export Plug-In . SVG Version: 6.00 Build 0)  -->
<svg version="1.1" id="Layer_1" xmlns="http://www.w3.org/2000/svg" xmlns:xlink="http://www.w3.org/1999/xlink" x="0px" y="0px"
	 viewBox="0 0 473.931 473.931" style="enable-background:new 0 0 473.931 473.931;" xml:space="preserve">
<circle style="fill:#4ABC96;" cx="236.966" cy="236.966" r="236.966"/>
<path style="fill:#242D2B;" d="M127.037,212.85l-14.915,55.692c0,0,25.433,62.282,124.11,62.278
	c98.666,0,124.728-62.274,124.728-62.274l-14.915-55.696H127.037z"/>
<path style="fill:#2A3633;" d="M127.037,212.85l-14.915,55.692c0,0,25.433,62.282,124.11,62.278l-0.748-117.966H127.037V212.85z"/>
<path style="fill:#181E1D;" d="M127.037,212.85l-4.614,16.093l100.964,29.485c7.73,2.357,20.254,2.357,27.981,0l99.291-28.965
	l-4.614-16.61H127.037V212.85z"/>
<path style="fill:#2A3633;" d="M251.368,252.662c-7.727,2.357-20.25,2.357-27.981,0l-170.98-52.321
	c-7.727-2.369-7.727-6.193,0-8.557l170.976-52.317c7.723-2.369,20.254-2.369,27.973,0l170.98,52.317
	c7.727,2.365,7.727,6.189,0,8.561L251.368,252.662z"/>
<g>
	<path style="fill:#BC992F;" d="M334.113,227.215c-1.28,0-2.32,1.044-2.32,2.32v93.978c0,1.276,1.036,2.316,2.32,2.316
		c1.283,0,2.32-1.04,2.32-2.316v-93.978C336.433,228.259,335.396,227.215,334.113,227.215z"/>
	<path style="fill:#BC992F;" d="M334.734,227.289L237.71,197c-1.22-0.385-2.522,0.299-2.907,1.519
		c-0.385,1.224,0.299,2.526,1.519,2.907l97.02,30.278c1.224,0.389,2.522-0.292,2.907-1.508
		C336.635,228.973,335.954,227.667,334.734,227.289z"/>
	<path style="fill:#BC992F;" d="M340.41,279.143c0,4.034-2.892,7.311-6.462,7.311s-6.462-3.278-6.462-7.311
		c0-4.049,2.892-7.319,6.462-7.319S340.41,275.094,340.41,279.143z"/>
	<path style="fill:#BC992F;" d="M331.842,285.152c0,0-6.395,7.375-6.395,11.846c0,1.856-0.067,12.232-0.116,19.79
		c-0.03,4.572-3.431,8.112-3.431,8.112c0,2.574,24.089,2.574,24.089,0c0,0-3.401-3.439-3.435-7.903
		c-0.056-7.379-0.135-17.56-0.135-19.663c0-4.808-6.372-12.187-6.372-12.187L331.842,285.152z"/>
</g>
<ellipse style="fill:#2B2B2A;" cx="237.826" cy="199.735" rx="12.127" ry="7.484"/>
<g>
</g>
<g>
</g>
<g>
</g>
<g>
</g>
<g>
</g>
<g>
</g>
<g>
</g>
<g>
</g>
<g>
</g>
<g>
</g>
<g>
</g>
<g>
</g>
<g>
</g>
<g>
</g>
<g>
</g>
</svg>
