<?xml version="1.0" encoding="iso-8859-1"?>
<!-- Generator: Adobe Illustrator 16.0.0, SVG Export Plug-In . SVG Version: 6.00 Build 0)  -->
<!DOCTYPE svg PUBLIC "-//W3C//DTD SVG 1.1//EN" "http://www.w3.org/Graphics/SVG/1.1/DTD/svg11.dtd">
<svg xmlns="http://www.w3.org/2000/svg" xmlns:xlink="http://www.w3.org/1999/xlink" version="1.1" id="Capa_1" x="0px" y="0px" width="512px" height="512px" viewBox="0 0 612 612" style="enable-background:new 0 0 612 612;" xml:space="preserve">
<g>
	<g>
		<path d="M554.625,191.25c0-21.038-17.213-38.25-38.25-38.25h-229.5l-38.25-76.5H38.25C17.212,76.5,0,93.712,0,114.75V229.5    h554.625V191.25z" fill="#808080"/>
		<path d="M506.812,306c17.213,0,32.513,3.825,47.812,9.562v-66.938H0V459c0,21.037,17.212,38.25,38.25,38.25h363.375    c-11.475-19.125-19.125-42.075-19.125-66.938C382.5,361.463,437.963,306,506.812,306z" fill="#808080"/>
		<path d="M506.812,325.125c-57.375,0-105.188,47.812-105.188,105.188S449.438,535.5,506.812,535.5S612,487.688,612,430.312    S564.188,325.125,506.812,325.125z M573.75,439.875h-57.375v57.375H497.25v-57.375h-57.375V420.75h57.375v-57.375h19.125v57.375    h57.375V439.875z" fill="#808080"/>
	</g>
</g>
<g>
</g>
<g>
</g>
<g>
</g>
<g>
</g>
<g>
</g>
<g>
</g>
<g>
</g>
<g>
</g>
<g>
</g>
<g>
</g>
<g>
</g>
<g>
</g>
<g>
</g>
<g>
</g>
<g>
</g>
</svg>
