<?xml version="1.0" encoding="iso-8859-1"?>
<!-- Generator: Adobe Illustrator 16.0.0, SVG Export Plug-In . SVG Version: 6.00 Build 0)  -->
<!DOCTYPE svg PUBLIC "-//W3C//DTD SVG 1.1//EN" "http://www.w3.org/Graphics/SVG/1.1/DTD/svg11.dtd">
<svg xmlns="http://www.w3.org/2000/svg" xmlns:xlink="http://www.w3.org/1999/xlink" version="1.1" id="Capa_1" x="0px" y="0px" width="512px" height="512px" viewBox="0 0 554.625 554.625" style="enable-background:new 0 0 554.625 554.625;" xml:space="preserve">
<g>
	<g>
		<path d="M382.5,325.125c17.213,0,32.513,3.825,47.812,9.562V153h-95.625c-21.037,0-38.25-17.212-38.25-38.25V0h-191.25    c-21.038,0-38.25,17.212-38.25,38.25v439.875c0,21.037,17.212,38.25,38.25,38.25h172.125    c-11.475-19.125-19.125-42.075-19.125-66.938C258.188,380.588,313.65,325.125,382.5,325.125z" fill="#808080"/>
		<path d="M334.688,133.875h95.625L315.562,0v114.75C315.562,126.225,325.125,133.875,334.688,133.875z" fill="#808080"/>
		<path d="M382.5,344.25c-57.375,0-105.188,47.812-105.188,105.188S325.125,554.625,382.5,554.625s105.188-47.812,105.188-105.188    S439.875,344.25,382.5,344.25z M449.438,459h-57.375v57.375h-19.125V459h-57.375v-19.125h57.375V382.5h19.125v57.375h57.375V459z" fill="#808080"/>
	</g>
</g>
<g>
</g>
<g>
</g>
<g>
</g>
<g>
</g>
<g>
</g>
<g>
</g>
<g>
</g>
<g>
</g>
<g>
</g>
<g>
</g>
<g>
</g>
<g>
</g>
<g>
</g>
<g>
</g>
<g>
</g>
</svg>
