<svg width="411.22" height="411.22" xmlns="http://www.w3.org/2000/svg">
 <defs>
  <radialGradient spreadMethod="pad" id="svg_30">
   <stop offset="0.109375" stop-opacity="0.996094" stop-color="#003f7f"/>
   <stop offset="1" stop-opacity="0.996094" stop-color="#273141"/>
  </radialGradient>
 </defs>
 <g>
  <title>background</title>
  <rect fill="none" id="canvas_background" height="413.22" width="413.22" y="-1" x="-1"/>
 </g>
 <g>
  <title>Layer 1</title>
  <ellipse ry="205.5" rx="205.5" id="svg_29" cy="205.610001" cx="205.609985" stroke-width="1.5" fill="url(#svg_30)"/>
  <g stroke="null" id="svg_1">
   <g stroke="null" id="svg_2">
    <g stroke="null" id="svg_3">
     <g stroke="null" id="XMLID_27_">
      <g stroke="null" id="svg_4">
       <path stroke="null" id="svg_5" fill="#1EA6C6" d="m245.973931,293.866697c0,15.462078 5.662261,29.627504 15.032033,40.528497c-8.900631,1.67457 -18.087959,2.547692 -27.470763,2.547692c-38.306597,0 -73.22496,-14.530313 -99.529388,-38.384787l0,-0.084706c0,-39.674923 23.215922,-73.922154 56.798538,-89.905499c12.621173,12.588594 27.399088,19.371579 42.730849,19.371579c15.338277,0 30.109676,-6.782985 42.737365,-19.371579c11.787146,5.610134 22.297189,13.468232 30.969766,23.026963c-33.882345,0.541466 -61.268402,28.265695 -61.268402,62.27184z"/>
       <path stroke="null" id="svg_6" fill="#FCD09F" d="m233.533898,83.258603c30.402889,0 55.052294,24.64289 55.052294,55.045779c0,30.409404 -24.649406,71.993467 -55.052294,71.993467s-55.052294,-41.584062 -55.052294,-71.993467c0,-30.402889 24.649406,-55.045779 55.052294,-55.045779z"/>
      </g>
     </g>
    </g>
    <g stroke="null" id="svg_7">
     <g stroke="null" id="XMLID_22_">
      <g stroke="null" id="svg_8">
       <path stroke="null" id="svg_9" fill="#EF806F" d="m187.137891,190.943211c1.687601,2.404343 3.433845,4.658822 5.238732,6.776469l-5.492849,2.61285c-18.283435,8.69864 -33.752028,22.310221 -44.744243,39.362162c-8.939726,13.872214 -14.543345,29.510219 -16.49158,45.81284c-19.866783,-5.414659 -37.824425,-15.455562 -52.647951,-28.897731l0,-0.071674c0,-34.573023 20.231669,-64.41555 49.494287,-78.346407c10.99873,10.972667 23.874021,16.88253 37.231484,16.88253c8.750767,0 17.299543,-2.53466 25.242347,-7.36941c0.697194,1.095312 1.426968,2.176941 2.169773,3.23837z"/>
       <path stroke="null" id="svg_10" fill="#EFC59C" d="m169.362692,138.302427c0,11.428776 2.971221,24.004338 8.262079,35.824064c-5.531944,3.50552 -11.572124,5.571039 -17.899,5.571039c-26.493387,0 -47.969581,-36.234561 -47.969581,-62.734465c0,-26.493387 21.476194,-47.963065 47.969581,-47.963065c14.693209,0 27.848681,6.607057 36.645059,17.012847c-16.3352,11.650314 -27.008138,30.748228 -27.008138,52.28958z"/>
      </g>
     </g>
    </g>
   </g>
   <circle stroke="null" id="svg_11" fill="#EF806F" r="53.16336" cy="293.866697" cx="308.258803"/>
   <rect stroke="null" id="svg_12" fill="#FFFFFF" height="9.773753" width="73.51296" y="288.979821" x="271.501672"/>
   <rect stroke="null" id="svg_13" fill="#FFFFFF" height="73.51296" width="9.773753" y="257.110217" x="303.371275"/>
  </g>
  <g id="svg_14"/>
  <g id="svg_15"/>
  <g id="svg_16"/>
  <g id="svg_17"/>
  <g id="svg_18"/>
  <g id="svg_19"/>
  <g id="svg_20"/>
  <g id="svg_21"/>
  <g id="svg_22"/>
  <g id="svg_23"/>
  <g id="svg_24"/>
  <g id="svg_25"/>
  <g id="svg_26"/>
  <g id="svg_27"/>
  <g id="svg_28"/>
 </g>
</svg>