<?xml version="1.0" encoding="iso-8859-1"?>
<!-- Generator: Adobe Illustrator 19.0.0, SVG Export Plug-In . SVG Version: 6.00 Build 0)  -->
<svg version="1.1" id="Layer_1" xmlns="http://www.w3.org/2000/svg" xmlns:xlink="http://www.w3.org/1999/xlink" x="0px" y="0px"
	 viewBox="0 0 480.16 480.16" style="enable-background:new 0 0 480.16 480.16;" xml:space="preserve">
<g>
	<g id="XMLID_145_">
		<g>
			<path style="fill:#9B8579;" d="M259.121,148.018c0.199,3.09,0.1,4.885,0.1,4.885c-54.529,0-95.601-29.109-95.601-29.109
				c0,24.922-87.127,29.109-87.127,29.109S72.106,49.028,167.806,49.028c35.29,0,56.922,14.156,70.28,32.1
				C256.03,105.252,258.822,136.155,259.121,148.018z"/>
			<path style="fill:#9B8579;" d="M309.064,49.028c95.501,0,91.314,103.875,91.314,103.875c-54.529,0-95.501-29.109-95.501-29.109
				c0,12.86-23.227,20.137-45.657,24.224h-0.1c-0.299-11.863-3.09-42.766-21.034-66.891l1.196-0.897
				C252.641,62.785,274.173,49.028,309.064,49.028z"/>
			<path style="fill:#6D6E71;" d="M325.612,410.298c0,0-0.1-31.402-45.059-56.324l7.676-22.53l0.399-0.997
				c6.679,2.891,14.854,5.184,23.726,5.184c6.878,0,12.86-1.396,17.744-3.389l12.162,36.586l-16.648,49.744
				C325.612,413.488,325.612,410.298,325.612,410.298z"/>
			<path style="fill:#6D6E71;" d="M188.541,331.444l12.461,37.383l-20.735,62.305h-24.922l-20.735-62.305l12.461-37.383l0.299-0.598
				c5.882,2.791,12.76,4.785,20.436,4.785s14.554-1.994,20.436-4.785L188.541,331.444z"/>
			<path style="fill:#E7ECED;" d="M269.189,318.186c0,0,7.576,7.078,19.439,12.262l-0.399,0.997l-7.676,22.53
				c-9.271-5.184-20.336-9.969-33.794-14.255c0,0-2.692-1.396-6.679-3.688C248.853,331.245,262.909,325.164,269.189,318.186z"/>
			<path style="fill:#E7ECED;" d="M325.612,418.572l16.648-49.744l-12.162-36.586c12.561-5.084,18.841-14.056,18.841-14.056
				c9.072,10.168,42.367,21.533,42.367,21.533c78.654,24.922,78.853,70.579,78.853,70.579s0,9.171,0,20.835H325.612
				C325.612,426.347,325.612,422.061,325.612,418.572z"/>
			<path style="fill:#E7ECED;" d="M280.553,353.974c44.959,24.922,45.059,56.324,45.059,56.324s0,3.19,0,8.274l-4.187,12.561
				H180.267l20.735-62.305l-12.461-37.383l-0.299-0.598c13.059-6.181,21.134-16.05,21.134-16.05
				c6.28,7.078,21.732,16.249,30.704,21.234c3.988,2.293,6.679,3.688,6.679,3.688C260.217,344.005,271.283,348.79,280.553,353.974z"
				/>
			<path style="fill:#E7ECED;" d="M134.61,368.827l20.735,62.305H10c0-11.664,0-20.835,0-20.835s0.798-45.358,78.953-70.579
				c0,0,28.212-14.754,37.283-24.922c0,0,8.075,9.869,21.134,16.05l-0.299,0.598L134.61,368.827z"/>
			<path style="fill:#FFD7A3;" d="M126.835,288.678c11.963,6.181,25.72,9.57,40.972,9.57c15.252,0,29.009-3.389,40.972-9.57
				l0.598,1.196v24.922c0,0-8.075,9.869-21.134,16.05c-5.882,2.791-12.76,4.785-20.436,4.785s-14.554-1.994-20.436-4.785
				c-13.059-6.181-21.134-16.05-21.134-16.05v-24.922L126.835,288.678z"/>
			<path style="fill:#FFD7A3;" d="M330.098,332.242c-4.885,1.994-10.866,3.389-17.744,3.389c-8.872,0-17.047-2.293-23.726-5.184
				c-11.863-5.184-19.439-12.262-19.439-12.262v-29.009c11.664,5.882,25.121,9.072,39.875,9.072s28.212-3.19,39.875-9.072v29.009
				C348.939,318.186,342.659,327.158,330.098,332.242z"/>
			<path style="fill:#FFD7A3;" d="M425.301,190.186c0,11.464-11.165,24.922-24.922,24.922l-1.097-0.199
				c0.698-5.283,1.097-10.766,1.097-16.349v-24.922C414.135,173.638,425.301,178.722,425.301,190.186z"/>
			<path style="fill:#FFD7A3;" d="M76.492,198.56c0,5.583,0.399,11.065,1.097,16.349l-1.097,0.199
				c-13.757,0-24.922-13.458-24.922-24.922s11.165-16.548,24.922-16.548V198.56z"/>
			<path style="fill:#FFD7A3;" d="M284.142,190.186c0,11.464-11.165,24.922-24.922,24.922l-1.097-0.199
				c0.698-5.283,1.097-10.766,1.097-16.349v-24.922C272.977,173.638,284.142,178.722,284.142,190.186z"/>
			<path style="fill:#FFE1B2;" d="M348.939,289.177c-11.663,5.882-25.121,9.072-39.875,9.072s-28.212-3.19-39.875-9.072
				c-11.763-5.682-21.832-14.056-29.906-24.324l-1.097-0.897c10.567-13.558,17.346-30.405,19.938-49.047l1.097,0.199
				c13.757,0,24.922-13.458,24.922-24.922s-11.165-16.548-24.922-16.548v-20.735c0,0,0.1-1.794-0.1-4.885h0.1
				c22.43-4.087,45.657-11.364,45.657-24.224c0,0,40.972,29.109,95.501,29.109v20.735v24.922c0,5.583-0.399,11.065-1.097,16.349
				C394.796,248.105,376.553,275.719,348.939,289.177z"/>
			<path style="fill:#FFE1B2;" d="M259.22,173.638v24.922c0,5.583-0.399,11.065-1.097,16.349
				c-2.592,18.642-9.371,35.489-19.938,49.047c-7.776,10.368-17.744,18.841-29.408,24.723c-11.963,6.181-25.72,9.57-40.972,9.57
				s-29.009-3.389-40.972-9.57c-26.916-13.657-44.76-41.071-49.246-73.769c-0.698-5.283-1.097-10.766-1.097-16.349v-24.922v-20.735
				c0,0,87.127-4.187,87.127-29.109c0,0,41.071,29.109,95.601,29.109v20.734H259.22z"/>
		</g>
		<g>
			<rect x="221.837" y="383.75" style="fill:#231F20;" width="58.118" height="20"/>
			<path style="fill:#231F20;" d="M394.438,330.221c-11.215-3.841-28.098-10.968-35.499-16.463v-18.566
				c25.231-14.443,42.65-39.743,48.906-70.967c16.126-3.851,27.455-19.682,27.455-34.038c0-13.424-9.503-22.888-24.922-25.686
				v-11.417c0.137-4.198,1.055-53.931-30.314-86.589c-17.506-18.226-41.394-27.467-71-27.467c-29.555,0-53.291,9.076-70.72,27.005
				c-17.404-17.926-41.069-27.005-70.538-27.005c-29.699,0-53.638,9.263-71.151,27.532c-31.279,32.627-30.31,82.223-30.163,86.527
				v11.414c-15.418,2.798-24.922,12.262-24.922,25.686c0,14.36,11.335,30.197,27.469,34.042
				c6.16,30.474,22.974,55.408,47.197,69.997v16.367c-7.242,6.294-22.037,15.04-31.184,19.878
				C1.877,357.64,0.039,407.985,0.002,410.122C0.001,410.18,0,410.239,0,410.297v20.835c0,5.523,4.478,10,10,10h460.16
				c5.522,0,10-4.477,10-10v-20.878C480.15,408.093,478.96,357.045,394.438,330.221z M167.807,308.248
				c11.111,0,21.684-1.636,31.569-4.849v7.46c-2.858,2.828-8.279,7.572-15.421,10.952c-10.683,5.07-21.608,5.073-32.307-0.004
				c-7.122-3.371-12.55-8.122-15.412-10.952v-7.461C146.141,306.615,156.705,308.248,167.807,308.248z M269.221,185.053
				c2.728,0.945,4.922,2.517,4.922,5.134c0,3.149-1.92,7.183-4.954,10.267C269.198,199.823,269.221,185.053,269.221,185.053z
				 M238.437,279.055c6.229,6.41,13.171,11.807,20.752,16.141v18.616c-4.441,3.444-11.615,7.102-17.131,9.914
				c-0.605,0.309-1.202,0.613-1.789,0.914c-9.23-5.344-16.602-10.304-20.893-14.044v-16.361
				C226.378,290.03,232.75,284.955,238.437,279.055z M338.939,314.496c-2.238,2.308-6.475,6-12.619,8.487
				c-4.306,1.757-9.005,2.648-13.967,2.648c-6.421,0-13.067-1.467-19.722-4.347c-5.879-2.569-10.562-5.696-13.442-7.849v-9.521
				c9.386,2.874,19.38,4.333,29.875,4.333c10.496,0,20.489-1.459,29.875-4.333V314.496z M269.469,331.081
				c1.938,1.353,4.237,2.841,6.843,4.334l-1.506,4.419c-3.64-1.695-7.439-3.311-11.417-4.854
				C265.498,333.738,267.551,332.445,269.469,331.081z M145.15,368.83l8.376-25.127c9.448,2.506,19.118,2.505,28.561,0.001
				l8.376,25.126l-17.406,52.303h-10.5L145.15,368.83z M210.489,365.665l-10.062-30.184c3.639-2.333,6.771-4.772,9.295-6.966
				c7.537,5.851,17.393,11.749,25.436,16.22c4.094,2.353,6.88,3.8,6.997,3.861c0.504,0.261,1.028,0.479,1.568,0.651
				c12.328,3.927,22.779,8.328,31.981,13.473c38.138,21.141,39.838,46.08,39.907,47.705v6.523l-1.395,4.184H194.135l16.356-49.147
				C211.174,369.934,211.174,367.716,210.489,365.665z M292.637,349.513l2.152-6.313c5.871,1.612,11.748,2.432,17.565,2.432
				c3.854,0,7.624-0.365,11.28-1.08l8.085,24.265l-4.87,14.552C320.724,372.863,310.316,360.685,292.637,349.513z M390.379,198.56
				c0,4.898-0.34,9.958-1.007,15.01c-4.116,30.462-20.451,54.744-44.813,66.618c-0.041,0.02-0.081,0.04-0.122,0.06
				c-10.527,5.309-22.428,8-35.372,8s-24.845-2.692-35.372-8c-0.051-0.025-0.102-0.05-0.153-0.075
				c-8.45-4.082-16.004-9.801-22.551-16.996c7.409-11.404,12.736-24.62,15.669-38.943c16.143-3.838,27.486-19.681,27.486-34.046
				c0-13.424-9.503-22.888-24.922-25.686v-8.265c15.191-3.265,31.633-8.48,40.026-18.001c14.767,8.324,44.369,22.158,81.132,24.366
				v35.958H390.379z M415.301,190.187c0,3.149-1.92,7.183-4.954,10.267c0.009-0.631,0.032-15.401,0.032-15.401
				C413.106,185.998,415.301,187.569,415.301,190.187z M309.064,59.028c23.905,0,42.913,7.145,56.495,21.237
				c18.603,19.301,23.31,47.435,24.472,62.253c-45.345-3.252-79.016-26.631-79.363-26.876c-3.051-2.166-7.056-2.45-10.379-0.733
				c-3.324,1.716-5.413,5.145-5.413,8.886c0,1.304-5.044,6.971-26.575,12.115c-1.556-14.247-5.868-35.021-17.517-53.846
				C264.553,66.787,284.117,59.028,309.064,59.028z M111.093,80.4c13.595-14.182,32.677-21.373,56.714-21.373
				c27.445,0,48.393,9.444,62.256,28.068c14.1,18.957,17.8,43.033,18.756,55.417c-45.338-3.267-79.07-26.633-79.417-26.878
				c-3.051-2.162-7.055-2.441-10.374-0.725c-3.322,1.717-5.408,5.144-5.408,8.883c0,1.444-6.275,8.482-35.269,14.045
				c-11.615,2.229-23.361,3.545-31.527,4.277C87.978,127.268,92.666,99.622,111.093,80.4z M66.492,185.053
				c0,0,0.023,14.77,0.032,15.401c-3.034-3.084-4.954-7.118-4.954-10.267C61.57,187.569,63.765,185.998,66.492,185.053z
				 M87.503,213.599c-0.671-5.074-1.011-10.134-1.011-15.039v-36.332c8.608-0.722,21.951-2.134,35.44-4.712
				c9.744-1.862,34.666-6.624,45.964-19.345c14.751,8.315,44.457,22.215,81.324,24.429v35.959c0,4.898-0.34,9.958-1.001,14.972
				c-2.356,16.946-8.554,32.257-17.921,44.276c-0.038,0.049-0.075,0.098-0.112,0.147c-6.985,9.314-15.703,16.646-25.998,21.839
				c-10.858,5.61-23.099,8.454-36.382,8.454c-13.284,0-25.524-2.844-36.447-8.488C107.603,267.706,91.614,243.573,87.503,213.599z
				 M20,410.523c0.071-1.069,0.909-10.065,9.313-21.672c15.131-20.899,63.773-40.009,64.274-40.271
				c2.436-1.273,20.149-10.647,32.291-20.075c2.527,2.197,5.662,4.641,9.306,6.977l-10.061,30.184
				c-0.684,2.051-0.684,4.269-0.001,6.32l16.356,49.147H20V410.523z M460.16,421.132H335.612v-0.891L351.744,372
				c0.687-2.053,0.689-4.274,0.006-6.329l-9.455-28.441c2.96-1.82,5.486-3.73,7.554-5.525c13.23,8.686,33.465,15.851,38.227,17.476
				c0.07,0.024,48.005,18.605,62.989,39.514c8.438,11.773,9.056,20.895,9.095,21.738V421.132z"/>
			<rect x="362.995" y="383.75" style="fill:#231F20;" width="58.118" height="20"/>
		</g>
	</g>
</g>
<g>
</g>
<g>
</g>
<g>
</g>
<g>
</g>
<g>
</g>
<g>
</g>
<g>
</g>
<g>
</g>
<g>
</g>
<g>
</g>
<g>
</g>
<g>
</g>
<g>
</g>
<g>
</g>
<g>
</g>
</svg>
