<svg width="411.223" height="411.223" xmlns="http://www.w3.org/2000/svg">
 <defs>
  <radialGradient id="svg_29" spreadMethod="pad" cx="0.5" cy="0.5" r="0.5">
   <stop stop-color="#003f7f" stop-opacity="0.996094" offset="0.101563"/>
   <stop stop-color="#273141" stop-opacity="0.996094" offset="1"/>
  </radialGradient>
 </defs>
 <g>
  <title>background</title>
  <rect x="-1" y="-1" width="413.223" height="413.223" id="canvas_background" fill="none"/>
 </g>
 <g>
  <title>Layer 1</title>
  <ellipse stroke="#e99e40" fill="url(#svg_29)" stroke-width="null" stroke-opacity="0" cx="205.666672" cy="205.666672" id="svg_25" rx="205" ry="205.254857"/>
  <g id="svg_1" stroke="null">
   <g id="svg_2" stroke="null">
    <g id="XMLID_27_" stroke="null">
     <g id="svg_3" stroke="null">
      <path d="m339.16901,303.85509c0,0.02667 0,0.05334 0,0.08668c-26.91721,24.41018 -62.64903,39.27899 -101.84134,39.27899c-39.19898,0 -74.9308,-14.86881 -101.84801,-39.27899c0,-0.03334 0,-0.06001 0,-0.08668c0,-40.59919 23.75675,-75.64424 58.12171,-91.99993c12.91519,12.88186 28.03737,19.82286 43.7263,19.82286c15.69559,0 30.81111,-6.941 43.73297,-19.82286c34.36495,16.35569 58.10837,51.40074 58.10837,91.99993z" fill="#1EA6C6" id="svg_4" stroke="null"/>
      <path d="m237.32767,83.62335c31.11115,0 56.33478,25.21697 56.33478,56.32812c0,31.11782 -25.22363,73.67061 -56.33478,73.67061s-56.33479,-42.55279 -56.33479,-73.67061c0,-31.11115 25.22364,-56.32812 56.33479,-56.32812z" fill="#FCD09F" id="svg_5" stroke="null"/>
     </g>
    </g>
   </g>
   <g id="svg_6" stroke="null">
    <g id="XMLID_22_" stroke="null">
     <g id="svg_7" stroke="null">
      <path d="m189.85083,193.81723c1.72691,2.46035 3.51384,4.76735 5.36077,6.93433l-5.62081,2.67372c-18.70936,8.90129 -34.53831,22.82996 -45.7866,40.27914c-9.14799,14.19538 -14.88215,30.19769 -16.87576,46.88009c-20.3296,-5.5408 -38.70558,-15.81561 -53.87444,-29.57093l0,-0.07334c0,-35.37843 20.70299,-65.91617 50.6473,-80.17156c11.25496,11.22829 24.43019,17.27583 38.09883,17.27583c8.95462,0 17.70255,-2.59371 25.83039,-7.54109c0.71343,1.12016 1.46021,2.22699 2.22032,3.31381z" fill="#EF806F" id="svg_8" stroke="null"/>
      <path d="m171.66154,139.94947c0,11.69502 3.04044,24.56354 8.45455,36.65861c-5.66082,3.58719 -11.84171,5.70083 -18.31597,5.70083c-27.11058,0 -49.08708,-37.07868 -49.08708,-64.19592c0,-27.11058 21.9765,-49.08041 49.08708,-49.08041c15.0355,0 28.49744,6.76097 37.49874,17.40918c-16.71575,11.92171 -27.63732,31.46453 -27.63732,53.50771z" fill="#EFC59C" id="svg_9" stroke="null"/>
     </g>
    </g>
   </g>
  </g>
  <g id="svg_10"/>
  <g id="svg_11"/>
  <g id="svg_12"/>
  <g id="svg_13"/>
  <g id="svg_14"/>
  <g id="svg_15"/>
  <g id="svg_16"/>
  <g id="svg_17"/>
  <g id="svg_18"/>
  <g id="svg_19"/>
  <g id="svg_20"/>
  <g id="svg_21"/>
  <g id="svg_22"/>
  <g id="svg_23"/>
  <g id="svg_24"/>
 </g>
</svg>