<svg width="58" height="58" xmlns="http://www.w3.org/2000/svg">

 <g>
  <title>background</title>
  <rect fill="none" id="canvas_background" height="402" width="582" y="-1" x="-1"/>
 </g>
 <g>
  <title>Layer 1</title>
  <ellipse ry="28.921546" rx="28.921546" id="svg_23" cy="29" cx="29" stroke-opacity="0" stroke-width="null" stroke="#332D40" fill="#535F75"/>
  <g stroke="null" id="svg_22">
   <polygon stroke="null" id="svg_1" fill="#FC3952" points="39.7541044394502,14.614663707099453 39.7541044394502,16.85526538825843 35.83305416965777,16.85526538825843 35.83305416965777,14.614663707099453 22.389459630257534,14.614663707099453 22.389459630257534,16.85526538825843 18.468409360465103,16.85526538825843 18.468409360465103,14.614663707099453 13.987210856757656,14.614663707099453 13.987210856757656,20.77630982771825 44.23530197143555,20.77630982771825 44.23530197143555,14.614663707099453 "/>
   <polygon stroke="null" id="svg_2" fill="#EDEADA" points="18.468409360465103,20.77630982771825 13.987210856757656,20.77630982771825 13.987210856757656,44.862754821777344 44.23530197143555,44.862754821777344 44.23530197143555,20.77630982771825 39.7541044394502,20.77630982771825 35.83305416965777,20.77630982771825 22.389459630257534,20.77630982771825 "/>
   <path stroke="null" id="svg_3" fill="#CEC9AE" d="m34.712755,24.697362l-1.1203,0l-3.921049,0l-1.1203,0l-3.921049,0l-1.1203,0l-5.041349,0l0,5.041349l0,1.1203l0,3.921049l0,1.1203l0,5.041349l5.041349,0l1.1203,0l3.921049,0l1.1203,0l3.921049,0l1.1203,0l5.041349,0l0,-5.041349l0,-1.1203l0,-3.921049l0,-1.1203l0,-5.041349l-5.041349,0zm-5.041349,1.1203l3.921049,0l0,3.921049l-3.921049,0l0,-3.921049zm3.921049,8.962397l-3.921049,0l0,-3.921049l3.921049,0l0,3.921049zm-8.962397,-3.921049l3.921049,0l0,3.921049l-3.921049,0l0,-3.921049zm0,-5.041349l3.921049,0l0,3.921049l-3.921049,0l0,-3.921049zm-5.041349,0l3.921049,0l0,3.921049l-3.921049,0l0,-3.921049zm0,5.041349l3.921049,0l0,3.921049l-3.921049,0l0,-3.921049zm3.921049,8.962397l-3.921049,0l0,-3.921049l3.921049,0l0,3.921049zm5.041349,0l-3.921049,0l0,-3.921049l3.921049,0l0,3.921049zm5.041349,0l-3.921049,0l0,-3.921049l3.921049,0l0,3.921049zm5.041349,0l-3.921049,0l0,-3.921049l3.921049,0l0,3.921049zm0,-5.041349l-3.921049,0l0,-3.921049l3.921049,0l0,3.921049zm-3.921049,-5.041349l0,-3.921049l3.921049,0l0,3.921049l-3.921049,0z"/>
   <rect stroke="null" y="12.374065" id="svg_4" fill="#28384C" height="4.481199" width="3.921049" x="18.46841"/>
   <rect stroke="null" y="12.374065" id="svg_5" fill="#28384C" height="4.481199" width="3.921049" x="35.833055"/>
   <rect stroke="null" id="svg_6" fill="#26B99A" height="3.921049" width="3.921049" y="30.85901" x="29.671407"/>
   <g stroke="null" id="svg_7"/>
   <g stroke="null" id="svg_8"/>
   <g stroke="null" id="svg_9"/>
   <g stroke="null" id="svg_10"/>
   <g stroke="null" id="svg_11"/>
   <g stroke="null" id="svg_12"/>
   <g stroke="null" id="svg_13"/>
   <g stroke="null" id="svg_14"/>
   <g stroke="null" id="svg_15"/>
   <g stroke="null" id="svg_16"/>
   <g stroke="null" id="svg_17"/>
   <g stroke="null" id="svg_18"/>
   <g stroke="null" id="svg_19"/>
   <g stroke="null" id="svg_20"/>
   <g stroke="null" id="svg_21"/>
  </g>
 </g>
</svg>