<?xml version="1.0" encoding="iso-8859-1"?>
<!-- Generator: Adobe Illustrator 19.0.0, SVG Export Plug-In . SVG Version: 6.00 Build 0)  -->
<svg version="1.1" id="Layer_1" xmlns="http://www.w3.org/2000/svg" xmlns:xlink="http://www.w3.org/1999/xlink" x="0px" y="0px"
	 viewBox="0 0 473.935 473.935" style="enable-background:new 0 0 473.935 473.935;" xml:space="preserve">
<circle style="fill:#4ABC96;" cx="236.967" cy="236.967" r="236.967"/>
<g>
	<path style="fill:#A3D4AA;" d="M355.369,174.742c0,6.036-4.898,10.934-10.934,10.934h-68.314c-6.035,0-10.93-4.898-10.93-10.934
		v-39.618c0-6.035,4.894-10.934,10.93-10.934h68.314c6.035,0,10.934,4.898,10.934,10.934V174.742z"/>
	<path style="fill:#A3D4AA;" d="M386.68,301.996c0,19.644-15.921,35.562-35.562,35.562H128.863
		c-19.644,0-35.562-15.921-35.562-35.562V173.091c0-19.641,15.918-35.562,35.562-35.562h222.251
		c19.641,0,35.562,15.925,35.562,35.562v128.905H386.68z"/>
</g>
<rect x="292.575" y="129.446" transform="matrix(-0.7071 0.7071 -0.7071 -0.7071 634.8085 68.3069)" style="opacity:0.15;enable-background:new    ;" width="21.365" height="72.362"/>
<g>
	<path style="fill:#F6A2A3;" d="M288.686,180.298c0,6.035-4.898,10.934-10.934,10.934h-68.314c-6.035,0-10.934-4.898-10.934-10.934
		v-39.614c0-6.039,4.898-10.934,10.934-10.934h68.314c6.036,0,10.934,4.898,10.934,10.934V180.298z"/>
	<path style="fill:#F6A2A3;" d="M386.68,309.771c0,19.641-15.921,35.562-35.562,35.562H128.863
		c-19.644,0-35.562-15.921-35.562-35.562V180.867c0-19.644,15.918-35.562,35.562-35.562h222.251
		c19.641,0,35.562,15.921,35.562,35.562v128.905H386.68z"/>
</g>
<rect x="223.929" y="135.844" transform="matrix(-0.7071 0.7071 -0.7071 -0.7071 522.1472 127.7685)" style="opacity:0.15;enable-background:new    ;" width="21.365" height="72.362"/>
<g>
	<path style="fill:#F9F29A;" d="M222.008,188.451c0,6.039-4.898,10.93-10.934,10.93h-68.318c-6.035,0-10.93-4.894-10.93-10.93
		v-39.626c0-6.032,4.894-10.926,10.93-10.926h68.318c6.036,0,10.934,4.894,10.934,10.926V188.451z"/>
	<path style="fill:#F9F29A;" d="M386.68,354.228H93.298l0.004-164.47c0-19.641,15.918-35.562,35.562-35.562h222.251
		c19.641,0,35.562,15.925,35.562,35.562v164.47H386.68z"/>
</g>
<g>
</g>
<g>
</g>
<g>
</g>
<g>
</g>
<g>
</g>
<g>
</g>
<g>
</g>
<g>
</g>
<g>
</g>
<g>
</g>
<g>
</g>
<g>
</g>
<g>
</g>
<g>
</g>
<g>
</g>
</svg>
