<?xml version="1.0" encoding="iso-8859-1"?>
<!-- Generator: Adobe Illustrator 19.0.0, SVG Export Plug-In . SVG Version: 6.00 Build 0)  -->
<svg version="1.1" id="Layer_1" xmlns="http://www.w3.org/2000/svg" xmlns:xlink="http://www.w3.org/1999/xlink" x="0px" y="0px"
	 viewBox="0 0 473.931 473.931" style="enable-background:new 0 0 473.931 473.931;" xml:space="preserve">
<circle style="fill:#67B8CB;" cx="236.966" cy="236.966" r="236.966"/>
<path style="fill:#FFF4E4;" d="M368.545,355.55c0,7.177-5.818,12.999-13.003,12.999H118.397c-7.177,0-12.995-5.822-12.995-12.999
	V118.401c0-7.18,5.818-12.999,12.995-12.999h237.149c7.184,0,13.003,5.818,13.003,12.999V355.55H368.545z"/>
<g>
	<g>
		<g>
			<polygon style="fill:#DBF0F5;" points="355.969,318.731 117.817,318.555 118.169,153.165 356.324,153.341 			"/>
			<g>
				<path style="fill:#6CC077;" d="M353.316,289.156l-32.198-32.25c0,0-9.223-11.899-17.803-11.424
					c-7.719,0.43-16.737,10.092-18.462,12.007l-10.795-10.817c0,0-10.802-13.957-20.857-13.388
					c-10.058,0.554-22.061,14.552-22.061,14.552l-3.311,3.289l-20.318-20.348c0,0-13.287-17.16-25.631-16.464
					c-12.352,0.688-27.12,17.889-27.12,17.889l-34.245,34.196l-0.007,49.694l232.771,0.161L353.316,289.156z"/>
				<g>
					<path style="fill:#67B8CB;" d="M251.637,195.013c0.03-0.262,0.213-0.498,0.206-0.775c0-4.239-4.576-7.674-10.222-7.682
						c-0.745,0-1.396,0.206-2.107,0.314c-1.688-2.253-4.778-3.828-8.479-3.835c-4.786,0-8.587,2.593-9.485,5.994
						c-4.647,0.913-8.15,3.948-8.157,7.719c0,3.573,3.113,6.518,7.382,7.614c1.456,3.259,5.414,5.65,10.245,5.65
						c4.37,0.007,8.09-1.949,9.83-4.737c1.134,0.382,2.346,0.606,3.663,0.606c5.014,0.007,9.085-3.042,9.092-6.81
						C253.594,197.516,252.786,196.158,251.637,195.013z"/>
					<path style="fill:#67B8CB;" d="M299.446,204.682c-0.037-0.191-0.161-0.352-0.161-0.546c0.007-3.012,3.274-5.444,7.278-5.444
						c0.528,0,0.995,0.146,1.489,0.228c1.205-1.601,3.405-2.728,6.02-2.728c3.405,0.007,6.11,1.856,6.754,4.269
						c3.296,0.666,5.781,2.821,5.774,5.497c0,2.537-2.223,4.625-5.246,5.399c-1.029,2.316-3.858,4.004-7.285,4.004
						c-3.113,0.007-5.744-1.396-6.986-3.368c-0.797,0.262-1.673,0.423-2.593,0.423c-3.573-0.007-6.462-2.17-6.455-4.846
						C298.02,206.463,298.607,205.497,299.446,204.682z"/>
				</g>
			</g>
		</g>
	</g>
</g>
<g>
</g>
<g>
</g>
<g>
</g>
<g>
</g>
<g>
</g>
<g>
</g>
<g>
</g>
<g>
</g>
<g>
</g>
<g>
</g>
<g>
</g>
<g>
</g>
<g>
</g>
<g>
</g>
<g>
</g>
</svg>
