<?xml version="1.0" encoding="iso-8859-1"?>
<!-- Generator: Adobe Illustrator 19.0.0, SVG Export Plug-In . SVG Version: 6.00 Build 0)  -->
<svg version="1.1" id="Capa_1" xmlns="http://www.w3.org/2000/svg" xmlns:xlink="http://www.w3.org/1999/xlink" x="0px" y="0px"
	 viewBox="0 0 60 60" style="enable-background:new 0 0 60 60;" xml:space="preserve">
<g>
	<path d="M50,13v37.266l4,7V59c0,0.553,0.447,1,1,1s1-0.447,1-1v-1.734l4-7V13v-2H50V13z M57.277,51L55,54.984L52.723,51H57.277z"/>
	<path d="M57.015,0h-4.029C51.339,0,50,1.339,50,2.985V7v2h10V7V2.985C60,1.339,58.661,0,57.015,0z"/>
	<path d="M0,0v60h10h36V0H10H0z M44,58H10V2h34V58z"/>
	<path d="M39,10H15v14h24V10z M34,20H20v-2h14V20z M34,16H20v-2h14V16z"/>
</g>
<g>
</g>
<g>
</g>
<g>
</g>
<g>
</g>
<g>
</g>
<g>
</g>
<g>
</g>
<g>
</g>
<g>
</g>
<g>
</g>
<g>
</g>
<g>
</g>
<g>
</g>
<g>
</g>
<g>
</g>
</svg>
