<?xml version="1.0" encoding="iso-8859-1"?>
<!-- Generator: Adobe Illustrator 19.0.0, SVG Export Plug-In . SVG Version: 6.00 Build 0)  -->
<svg version="1.1" id="Layer_1" xmlns="http://www.w3.org/2000/svg" xmlns:xlink="http://www.w3.org/1999/xlink" x="0px" y="0px"
	 viewBox="0 0 473.654 473.654" style="enable-background:new 0 0 473.654 473.654;" xml:space="preserve">
<circle style="fill:#4ABC96;" cx="236.827" cy="236.827" r="236.827"/>
<path style="fill:#037F7C;" d="M268.071,212.733c-42.246-42.242-70.506-29.726-131.439,31.214
	c-60.944,60.94-73.464,89.2-31.218,131.442c42.253,42.25,70.506,29.73,131.446-31.21
	C297.808,283.235,310.317,254.979,268.071,212.733z M130.036,350.776c-29.457-29.464-15.456-43.888,27.045-86.38
	c42.485-42.497,56.913-56.497,86.377-27.041c29.449,29.457,15.448,43.884-27.045,86.377S159.493,380.229,130.036,350.776z"/>
<path style="fill:#FFFFFF;" d="M111.813,311.596l-6.185-19.479c-23.365,26.263-26.155,41.756-6.178,62.657l15.441-14.315
	C104.532,329.632,104.211,322.09,111.813,311.596z"/>
<path style="fill:#F4E028;" d="M189.563,233.779c3.197,11.035,10.845,22.116,23.096,34.367
	c42.253,42.246,70.506,29.726,131.446-31.214s73.464-89.2,31.218-131.442s-70.506-29.726-131.446,31.214
	c-22.853,22.853-39.931,42.639-48.835,58.764c0,0,4.712-2.52,10.086-4.487c3.242-1.185,6.944-1.982,9.386-2.446
	c9.502-1.81,19.173,1.107,19.173,1.107c7.217-8.867,17.879-19.73,30.638-32.489c42.485-42.493,56.913-56.497,86.377-27.037
	c29.457,29.457,15.456,43.88-27.045,86.38c-42.493,42.489-56.92,56.494-86.377,27.037c-7.588-7.588-12.292-14.177-14.367-20.497
	c-0.037-0.123-4.267-1.687-9.742-1.335c-3.373,0.217-9.846,2.214-14.745,5.535C193.456,230.601,189.533,233.656,189.563,233.779z"/>
<path style="fill:#FFFFFF;" d="M369.515,167.563l6.185,19.483c23.365-26.263,26.155-41.76,6.17-62.657l-15.433,14.311
	C376.792,149.523,377.121,157.073,369.515,167.563z"/>
<g>
</g>
<g>
</g>
<g>
</g>
<g>
</g>
<g>
</g>
<g>
</g>
<g>
</g>
<g>
</g>
<g>
</g>
<g>
</g>
<g>
</g>
<g>
</g>
<g>
</g>
<g>
</g>
<g>
</g>
</svg>
