<?xml version="1.0" encoding="iso-8859-1"?>
<!-- Generator: Adobe Illustrator 19.0.0, SVG Export Plug-In . SVG Version: 6.00 Build 0)  -->
<svg xmlns="http://www.w3.org/2000/svg" xmlns:xlink="http://www.w3.org/1999/xlink" version="1.1" id="Capa_1" x="0px" y="0px" viewBox="0 0 489.1 489.1" style="enable-background:new 0 0 489.1 489.1;" xml:space="preserve" width="512px" height="512px">
<g>
	<g>
		<path d="M430.7,152.443c-4.2-51-48.9-91.5-103-91.5c-14.6,0-29.1,3.1-41.6,8.3c-27-42.7-74.9-68.7-126.9-68.7    c-82.2,0-148.8,64.5-148.8,143.6c0,13.5,2.1,27,6.2,40.6c-10.4,14.6-16.6,33.3-16.6,52c0,49.9,42.7,91.5,94.7,91.5h55.8    c18.2,25.2,47.5,41.6,80.5,41.6c32.3,0,62.2-16.2,81.2-42.7h82.2c52,0,94.7-40.6,94.7-90.5    C489,200.343,465.1,166.043,430.7,152.443z M231,329.343c-33.3,0-59.3-27-59.3-61.4c0-34.3,27-61.4,59.3-61.4s59.3,27,59.3,62.4    C290.3,296.943,268.5,329.343,231,329.343z M394.3,285.643h-64.9c1-5.9,1.4-11.8,1.4-17.7c0-56.2-44.7-102-99.9-102    s-99.9,45.8-99.9,102c0,6.4,0.6,12.7,1.7,18.7H93.6c-30.2,0-54.1-22.9-54.1-51c0-12.5,4.2-25,13.5-34.3c5.2-6.2,7.3-14.6,4.2-21.8    c-5.2-12.5-7.3-25-7.3-37.5c0-57.2,48.9-103,108.2-103c43.7,0,83.2,25,99.9,63.5c12,18.3,26,11.4,31.2,8.3    c10.4-8.3,23.9-12.5,37.5-12.5c34.3,0,62.4,27,62.4,59.3c0,2.1-4.6,21.9,16.6,27c24.8,6,42.7,26,42.7,49.9    C448.4,262.743,424.5,285.643,394.3,285.643z" fill="#cccccc"/>
		<path d="M231,400.043c-48.9,0-95.7,17.7-132.1,49.9c-8.3,8.3-8.3,20.8-1,29.1c8.3,8.3,20.8,8.3,29.1,1c28.1-26,64.5-40.6,103-40.6    c39.5,0,77,15.6,105.1,42.7c11.9,11.9,25,4.2,29.1,1c8.3-8.3,8.3-20.8,0-29.1C328.8,418.843,280.9,400.043,231,400.043z" fill="#cccccc"/>
	</g>
</g>
<g>
</g>
<g>
</g>
<g>
</g>
<g>
</g>
<g>
</g>
<g>
</g>
<g>
</g>
<g>
</g>
<g>
</g>
<g>
</g>
<g>
</g>
<g>
</g>
<g>
</g>
<g>
</g>
<g>
</g>
</svg>
