<?xml version="1.0" encoding="utf-8"?>
<!DOCTYPE svg PUBLIC "-//W3C//DTD SVG 1.1//EN" "http://www.w3.org/Graphics/SVG/1.1/DTD/svg11.dtd">
<svg xmlns="http://www.w3.org/2000/svg" xmlns:xlink="http://www.w3.org/1999/xlink" version="1.1" viewBox="0 0 512 512" enable-background="new 0 0 512 512" width="512px" height="512px">
  <g>
    <g>
      <path d="m443.4,167.1c-4.2-52.4-48.9-93.9-103.3-93.9-14.4,0-28.5,2.9-41.4,8.5-26.8-43.1-74.5-69.9-127-69.9-82.1,0-148.9,65.6-148.9,146.3 0,14.2 2.1,28.2 6.3,41.8-11.1,15.7-17.1,34.3-17.1,53.5 0,30.6 15.3,59.4 40.9,76.8 9.3,6.4 22,3.9 28.4-5.4 6.4-9.3 3.9-22-5.4-28.4-14.5-9.9-23.1-26-23.1-43.1 0-13.1 5-25.6 14.2-35.4 5.4-5.8 7-14.2 4.1-21.6-5-12.4-7.5-25.3-7.5-38.3 0-58.2 48.5-105.5 108.1-105.5 43.9,0 83.6,25.4 99.9,65.2 6.5,15.9 21.3,18.6 30.9,8.5 9.4-9.9 24-12.3 37.7-12.3 34.6,0 62.7,27.4 62.7,61 0,12.4 0.5,23.4 15.8,27 24.5,5.6 42.5,26.8 42.5,51.3 0,21.1-12.9,40.1-32.9,48.4-10.4,4.3-15.2,16.2-11,26.7 6.2,15.8 24.1,12.1 26.7,11 35.3-14.6 58.1-48.4 58.1-86.1-0.1-37.8-23.9-71.8-58.7-86.1z" fill="#cccccc"/>
      <path d="m318.1,461.2h-137.2v-115.7l68.6-56.3 68.6,56.3v115.7zm81.8-101.3l-137.5-112.9c-7.5-6.2-18.4-6.2-25.9,0l-137.4,112.9c-8.7,7.2-9.9,19.9-2.8,28.7 9.1,11.5 24.9,6 28.7,2.8l15-12.4v102.5c0,11.3 9.1,20.4 20.4,20.4h178c11.3,0 20.4-9.1 20.4-20.4v-102.5l15.1,12.4c8.7,7.2 21.6,5.9 28.7-2.8 7.3-8.7 6-21.6-2.7-28.7z" fill="#cccccc"/>
    </g>
  </g>
</svg>
