<?xml version="1.0" encoding="iso-8859-1"?>
<!-- Generator: Adobe Illustrator 19.0.0, SVG Export Plug-In . SVG Version: 6.00 Build 0)  -->
<svg xmlns="http://www.w3.org/2000/svg" xmlns:xlink="http://www.w3.org/1999/xlink" version="1.1" id="Capa_1" x="0px" y="0px" viewBox="0 0 488.744 488.744" style="enable-background:new 0 0 488.744 488.744;" xml:space="preserve" width="512px" height="512px">
<g>
	<path d="M393.872,334.3c51.9,0,94.5-41.5,94.5-93.4c0-38.4-23.9-71.6-58.1-86.2c-4.2-51.9-48.8-93.4-102.8-93.4   c-14.5,0-29.1,3.1-41.5,8.3C258.872,27,211.172,0,159.272,0c-82,0-148.5,65.4-148.5,146.4c0,13.5,2.1,28,6.2,41.5   c-10.3,15.6-16.6,34.3-16.6,53c0,51.9,42.6,93.4,94.5,93.4h50.9v41.5c0,11.4,9.3,20.8,20.8,20.8c11.4,0,20.8-9.3,20.8-20.8v-41.5   h114.2v84.1l-19.7-19.7c-8.3-8.3-20.8-8.3-29.1,0c-8.3,8.3-8.3,20.8,0,29.1l55,55c9.6,8.8,22.7,7,29.1,0l55-55   c8.3-8.3,8.3-20.8,0-29.1c-4.2-4.2-16.5-12.1-29.1,0l-19.7,19.7v-84.1H393.872z M187.272,294.9V217l19.7,19.7   c8.3,8.3,20.8,8.3,29.1,0s8.3-20.8,0-29.1l-55-55c-6.3-6.2-19.7-8.5-29.1,0l-55,55c-8.3,8.3-8.3,20.8,0,29.1   c4.2,4.2,16.5,12.1,29.1,0l19.7-19.7v77.9h-50.9c-30.1,0-54-23.9-54-52.9c0-13.5,5.2-26,14.5-35.3c5.2-6.2,7.3-14.5,4.2-21.8   c-5.2-12.5-7.3-24.9-7.3-38.4c0-58.1,47.8-105.9,106.9-105.9c43.6,0,83.1,26,99.7,66.4c10.9,17.5,26,12.5,31.1,8.3   c10.4-8.3,23.9-12.5,37.4-12.5c34.3,0,62.3,28,62.3,61.3c0,2.1-7.3,22.4,15.6,27c25,5,42.6,26,42.6,50.9c0,29.1-23.9,52.9-54,52.9   h-50.9v-35.3c0-11.4-9.3-20.8-20.8-20.8c-11.4,0-20.8,9.3-20.8,20.8v35.3H187.272z" fill="#FFFFFF"/>
</g>
<g>
</g>
<g>
</g>
<g>
</g>
<g>
</g>
<g>
</g>
<g>
</g>
<g>
</g>
<g>
</g>
<g>
</g>
<g>
</g>
<g>
</g>
<g>
</g>
<g>
</g>
<g>
</g>
<g>
</g>
</svg>
