<?xml version="1.0" encoding="iso-8859-1"?>
<!-- Generator: Adobe Illustrator 19.0.0, SVG Export Plug-In . SVG Version: 6.00 Build 0)  -->
<svg version="1.1" id="Layer_1" xmlns="http://www.w3.org/2000/svg" xmlns:xlink="http://www.w3.org/1999/xlink" x="0px" y="0px"
	 viewBox="0 0 512 512" style="enable-background:new 0 0 512 512;" xml:space="preserve">
<path style="fill:#FC0F1A;" d="M511.344,274.266C511.77,268.231,512,262.143,512,256C512,114.615,397.385,0,256,0S0,114.615,0,256
	c0,117.769,79.53,216.949,187.809,246.801L511.344,274.266z"/>
<path style="fill:#C30B15;" d="M511.344,274.266L314.991,77.913L119.096,434.087l68.714,68.714C209.522,508.787,232.385,512,256,512
	C391.243,512,501.976,407.125,511.344,274.266z"/>
<polygon style="fill:#FFFFFF;" points="278.328,333.913 255.711,77.913 119.096,77.913 119.096,311.652 "/>
<polygon style="fill:#E8E6E6;" points="392.904,311.652 392.904,155.826 337.252,133.565 314.991,77.913 255.711,77.913 
	256.067,333.913 "/>
<polygon style="fill:#FFFFFF;" points="314.991,155.826 314.991,77.913 392.904,155.826 "/>
<rect x="119.096" y="311.652" style="fill:#FF822E;" width="273.809" height="122.435"/>
<g>
	<path style="fill:#FFFFFF;" d="M207.899,346.387c13.547,0,21.341,6.659,21.341,18.465c0,12.412-7.795,19.601-21.341,19.601h-9.612
		v14.909h-13.471v-52.975L207.899,346.387L207.899,346.387z M198.286,373.858h8.93c5.904,0,9.308-2.952,9.308-8.552
		c0-5.525-3.406-8.324-9.308-8.324h-8.93V373.858z"/>
	<path style="fill:#FFFFFF;" d="M261.259,346.387c13.546,0,21.341,6.659,21.341,18.465c0,12.412-7.796,19.601-21.341,19.601h-9.612
		v14.909h-13.471v-52.975L261.259,346.387L261.259,346.387z M251.647,373.858h8.93c5.904,0,9.307-2.952,9.307-8.552
		c0-5.525-3.405-8.324-9.307-8.324h-8.93V373.858z"/>
	<path style="fill:#FFFFFF;" d="M316.054,357.209v42.153h-13.472v-42.153h-15.816v-10.898h45.255v10.898H316.054z"/>
</g>
<g>
</g>
<g>
</g>
<g>
</g>
<g>
</g>
<g>
</g>
<g>
</g>
<g>
</g>
<g>
</g>
<g>
</g>
<g>
</g>
<g>
</g>
<g>
</g>
<g>
</g>
<g>
</g>
<g>
</g>
</svg>
