<?xml version="1.0" encoding="iso-8859-1"?>
<!-- Generator: Adobe Illustrator 16.0.0, SVG Export Plug-In . SVG Version: 6.00 Build 0)  -->
<!DOCTYPE svg PUBLIC "-//W3C//DTD SVG 1.1//EN" "http://www.w3.org/Graphics/SVG/1.1/DTD/svg11.dtd">
<svg version="1.1" id="Capa_1" xmlns="http://www.w3.org/2000/svg" xmlns:xlink="http://www.w3.org/1999/xlink" x="0px" y="0px"
	 width="34.891px" height="34.891px" viewBox="0 0 34.891 34.891" style="enable-background:new 0 0 34.891 34.891;"
	 xml:space="preserve">
<g>
	<g>
		<path d="M32.43,33.652c0-1.398-1.609-3.285-3.783-3.836c0.907-0.611,1.533-1.816,1.533-2.902c0-1.532-1.242-2.774-2.771-2.774
			c-1.534,0-2.774,1.242-2.774,2.774c0,1.086,0.627,2.291,1.533,2.902c-2.173,0.551-3.783,2.438-3.783,3.836
			C22.384,35.304,32.43,35.304,32.43,33.652z"/>
		<path d="M9.028,6.278c1.239,0,2.247-1.442,2.247-2.682c0-1.244-1.008-2.249-2.247-2.249c-1.242,0-2.25,1.005-2.25,2.249
			C6.778,4.836,7.786,6.278,9.028,6.278z"/>
		<path d="M32.6,12.888V3.371c0-0.875-0.712-1.586-1.587-1.586h-6.146v-1.19C24.867,0.266,24.6,0,24.271,0s-0.596,0.267-0.596,0.595
			v1.19H17.53c-0.874,0-1.586,0.711-1.586,1.586v4.873l-3.079-1.027c-0.193-0.068-1.919-0.671-3.509-0.75L9.143,6.892H9.139
			l0.599,4.663l-0.711,1.244l-0.712-1.244l0.598-4.663H8.908L8.696,6.467C7.047,6.55,5.248,7.196,5.168,7.224
			C5.135,7.237,5.114,7.262,5.084,7.276C5.03,7.303,4.982,7.33,4.935,7.367C4.887,7.401,4.85,7.439,4.812,7.481
			C4.775,7.525,4.743,7.567,4.715,7.616C4.683,7.669,4.66,7.72,4.641,7.78C4.631,7.811,4.61,7.834,4.602,7.866L3.18,14.267
			c-0.106,0.479,0.195,0.955,0.675,1.062c0.065,0.012,0.128,0.018,0.194,0.018c0.408,0,0.775-0.28,0.865-0.694l1.314-5.907
			c0.092-0.029,0.195-0.06,0.31-0.092v6.071l-0.709,8.799c-0.027,0.34,0.12,0.645,0.354,0.858c-0.966,0.435-1.642,1.399-1.642,2.528
			c0,1.086,0.626,2.291,1.533,2.902c-2.173,0.551-3.783,2.438-3.783,3.836c0,1.652,10.046,1.652,10.046,0
			c0-1.398-1.61-3.285-3.783-3.836c0.908-0.611,1.534-1.816,1.534-2.902c0-1.375-1.001-2.508-2.314-2.729
			c0.095-0.145,0.168-0.304,0.183-0.488l0.639-7.953c0.133,0.057,0.278,0.091,0.433,0.091c0.152,0,0.297-0.034,0.429-0.091
			l0.64,7.953c0.047,0.56,0.513,0.981,1.064,0.981c0.027,0,0.057-0.001,0.085-0.003c0.587-0.047,1.026-0.561,0.979-1.148
			l-0.708-8.798V8.655c0.451,0.128,0.756,0.237,0.764,0.241c0.006,0.002,0.009,0.002,0.012,0.003
			c0.005,0.001,0.007,0.002,0.01,0.003l3.643,1.215v2.771c0,0.875,0.712,1.586,1.586,1.586h2.887l-2.533,9.454
			c-0.023,0.09-0.021,0.178-0.005,0.262c-0.168-0.031-0.341-0.052-0.519-0.052c-1.532,0-2.774,1.242-2.774,2.774
			c0,1.086,0.627,2.291,1.535,2.902c-2.174,0.551-3.784,2.438-3.784,3.836c0,1.652,10.046,1.652,10.046,0
			c0-1.398-1.61-3.285-3.782-3.836c0.907-0.611,1.533-1.816,1.533-2.902c0-0.998-0.529-1.864-1.32-2.354
			c0.104-0.076,0.186-0.188,0.221-0.322l2.615-9.763h2.027v6.919c0,0.327,0.268,0.594,0.596,0.594s0.596-0.267,0.596-0.594v-6.919
			h2.025l2.615,9.763c0.071,0.266,0.312,0.44,0.575,0.44c0.051,0,0.103-0.007,0.153-0.021c0.316-0.086,0.506-0.412,0.422-0.729
			l-2.533-9.454h2.887C31.888,14.474,32.6,13.763,32.6,12.888z M17.531,13.681c-0.438,0-0.794-0.356-0.794-0.793v-2.535
			c0.038,0.005,0.076,0.019,0.114,0.019c0.372,0,0.72-0.236,0.844-0.607c0.154-0.467-0.097-0.97-0.563-1.125l-0.396-0.132V3.371
			c0-0.438,0.355-0.793,0.794-0.793h13.482c0.438,0,0.794,0.355,0.794,0.793v9.517c0,0.437-0.354,0.793-0.794,0.793H17.531z"/>
	</g>
</g>
<g>
</g>
<g>
</g>
<g>
</g>
<g>
</g>
<g>
</g>
<g>
</g>
<g>
</g>
<g>
</g>
<g>
</g>
<g>
</g>
<g>
</g>
<g>
</g>
<g>
</g>
<g>
</g>
<g>
</g>
</svg>
