<?xml version="1.0" encoding="iso-8859-1"?>
<!-- Generator: Adobe Illustrator 16.0.0, SVG Export Plug-In . SVG Version: 6.00 Build 0)  -->
<!DOCTYPE svg PUBLIC "-//W3C//DTD SVG 1.1//EN" "http://www.w3.org/Graphics/SVG/1.1/DTD/svg11.dtd">
<svg xmlns="http://www.w3.org/2000/svg" xmlns:xlink="http://www.w3.org/1999/xlink" version="1.1" id="Capa_1" x="0px" y="0px" width="512px" height="512px" viewBox="0 0 98.666 98.666" style="enable-background:new 0 0 98.666 98.666;" xml:space="preserve">
<g>
	<g>
		<path d="M65.721,52.651H53.487c-2.142,0-4.169,0.481-5.997,1.323c4.859,0.65,9.062,3.316,11.725,7.168h6.506    c3.27,0,5.93,2.66,5.93,5.932c0,3.27-2.66,5.93-5.93,5.93h-3.392c0,0-6.63,0-8.841,0c-0.239,0-3.745,0.066-5.558-3.879    c-0.46-1-1.629-1.521-2.75-1.521h-6.089c0,5.166,4.153,12.761,12.451,13.74l0.604,0.084c0.441,0.041,0.889,0.066,1.343,0.066    h12.231c7.953,0,14.422-6.471,14.422-14.421C80.141,59.12,73.674,52.651,65.721,52.651z" fill="#999999"/>
		<path d="M39.476,76.807h-6.528c-3.27,0-5.929-2.659-5.929-5.93c0-3.27,2.66-5.93,5.929-5.93H45.18c2.519,0,4.528,1.486,5.53,3.801    c0.438,1.018,1.589,1.6,2.777,1.6h6.09c-0.282-7.705-6.623-13.893-14.398-13.893H32.947c-7.952,0-14.422,6.469-14.422,14.422    c0,7.951,6.47,14.422,14.422,14.422H45.18c2.144,0,4.172-0.482,6.001-1.324C46.345,83.318,42.144,80.641,39.476,76.807z" fill="#999999"/>
		<path d="M78.975,28.476c-0.738-0.064-1.414-0.44-1.857-1.036c-4.021-5.416-10.462-8.753-17.312-8.753    c-0.42,0-0.843,0.013-1.261,0.038c-0.612,0.036-1.218-0.147-1.709-0.516c-4.173-3.14-9.225-4.842-14.516-4.842    c-9.48,0-17.895,5.484-21.842,13.792c-0.374,0.786-1.116,1.33-1.976,1.453C8.057,30.097,0,39.1,0,49.949    c0,9.344,5.985,17.292,14.313,20.277c0.103-2.967,0.88-5.766,2.215-8.225c-4.714-1.973-8.036-6.632-8.036-12.053    c0-7.203,5.86-13.062,13.063-13.062c0.363,0,0.722,0.029,1.078,0.059c2.075,0.16,3.955-1.187,4.46-3.2    c1.756-7,8.018-11.888,15.227-11.888c4.118,0,8.017,1.591,10.976,4.479c1.013,0.986,2.446,1.407,3.832,1.118    c0.88-0.184,1.782-0.277,2.677-0.277c5.045,0,9.547,2.835,11.754,7.399c0.774,1.605,2.472,2.56,4.244,2.377    c0.44-0.045,0.883-0.067,1.311-0.067c7.201,0,13.062,5.86,13.062,13.063c0,4.892-2.705,9.157-6.695,11.396    c0.584,1.807,0.906,3.729,0.906,5.729c0,1.109-0.113,2.191-0.302,3.251c8.47-2.905,14.581-10.933,14.581-20.374    C98.668,38.693,89.992,29.423,78.975,28.476z" fill="#999999"/>
	</g>
</g>
<g>
</g>
<g>
</g>
<g>
</g>
<g>
</g>
<g>
</g>
<g>
</g>
<g>
</g>
<g>
</g>
<g>
</g>
<g>
</g>
<g>
</g>
<g>
</g>
<g>
</g>
<g>
</g>
<g>
</g>
</svg>
