<?xml version="1.0" encoding="iso-8859-1"?>
<!-- Generator: Adobe Illustrator 18.0.0, SVG Export Plug-In . SVG Version: 6.00 Build 0)  -->
<!DOCTYPE svg PUBLIC "-//W3C//DTD SVG 1.1//EN" "http://www.w3.org/Graphics/SVG/1.1/DTD/svg11.dtd">
<svg xmlns="http://www.w3.org/2000/svg" xmlns:xlink="http://www.w3.org/1999/xlink" version="1.1" id="Capa_1" x="0px" y="0px" viewBox="0 0 482.14 482.14" style="enable-background:new 0 0 482.14 482.14;" xml:space="preserve" width="512px" height="512px">
<g>
	<path d="M302.598,0H108.967C80.661,0,57.652,23.025,57.652,51.315v379.509c0,28.289,23.009,51.315,51.315,51.315h264.204   c28.275,0,51.316-23.026,51.316-51.315V121.449L302.598,0z M373.171,450.698H108.967c-10.97,0-19.891-8.905-19.891-19.874V51.315   c0-10.953,8.921-19.858,19.891-19.858l181.874-0.189v67.218c0,19.653,15.949,35.603,35.587,35.603l65.878-0.189l0.725,296.925   C393.031,441.793,384.142,450.698,373.171,450.698z" fill="#999999"/>
	<path d="M248.177,162.544c-3.924-3.94-10.307-3.94-14.247,0l-56.327,56.335c-2.9,2.893-3.75,7.227-2.191,10.977   c1.576,3.767,5.233,6.225,9.299,6.225h24.634v73.058c0,7.415,6.005,13.42,13.397,13.42h36.626c7.407,0,13.411-6.005,13.411-13.42   v-73.058h24.634c4.067,0,7.738-2.458,9.315-6.225c1.545-3.75,0.692-8.085-2.191-10.977L248.177,162.544z" fill="#999999"/>
</g>
<g>
</g>
<g>
</g>
<g>
</g>
<g>
</g>
<g>
</g>
<g>
</g>
<g>
</g>
<g>
</g>
<g>
</g>
<g>
</g>
<g>
</g>
<g>
</g>
<g>
</g>
<g>
</g>
<g>
</g>
</svg>
