<?xml version="1.0" encoding="iso-8859-1"?>
<!-- Generator: Adobe Illustrator 16.0.0, SVG Export Plug-In . SVG Version: 6.00 Build 0)  -->
<!DOCTYPE svg PUBLIC "-//W3C//DTD SVG 1.1//EN" "http://www.w3.org/Graphics/SVG/1.1/DTD/svg11.dtd">
<svg xmlns="http://www.w3.org/2000/svg" xmlns:xlink="http://www.w3.org/1999/xlink" version="1.1" id="Capa_1" x="0px" y="0px" width="512px" height="512px" viewBox="0 0 516.375 516.375" style="enable-background:new 0 0 516.375 516.375;" xml:space="preserve">
<g>
	<g>
		<path d="M344.25,133.875h95.625L325.125,0v114.75C325.125,126.225,334.688,133.875,344.25,133.875z" fill="#808080"/>
		<path d="M306,114.75V0H114.75C93.712,0,76.5,17.212,76.5,38.25v439.875c0,21.037,17.212,38.25,38.25,38.25h133.875V306l-61.2,61.2    l-15.3-13.388l86.062-86.062l86.062,86.062l-15.3,15.3L267.75,306v210.375h133.875c21.037,0,38.25-17.213,38.25-38.25V153H344.25    C323.213,153,306,135.788,306,114.75z" fill="#808080"/>
	</g>
</g>
<g>
</g>
<g>
</g>
<g>
</g>
<g>
</g>
<g>
</g>
<g>
</g>
<g>
</g>
<g>
</g>
<g>
</g>
<g>
</g>
<g>
</g>
<g>
</g>
<g>
</g>
<g>
</g>
<g>
</g>
</svg>
