<?xml version="1.0" encoding="iso-8859-1"?>
<!-- Generator: Adobe Illustrator 19.0.0, SVG Export Plug-In . SVG Version: 6.00 Build 0)  -->
<svg xmlns="http://www.w3.org/2000/svg" xmlns:xlink="http://www.w3.org/1999/xlink" version="1.1" id="Layer_1" x="0px" y="0px" viewBox="0 0 512 512" style="enable-background:new 0 0 512 512;" xml:space="preserve" width="512px" height="512px">
<g>
	<g>
		<path d="M452.182,128.81L320.185,2.627C318.42,0.942,316.074,0,313.633,0H66.37c-5.236,0-9.481,4.245-9.481,9.482v493.037    c0,5.236,4.245,9.482,9.481,9.482H445.63c5.236,0,9.481-4.245,9.481-9.482V135.664C455.111,133.076,454.052,130.6,452.182,128.81z     M322.37,30.951L428.85,132.741H322.37V30.951z M436.148,493.037H75.852V18.963h227.556v123.259c0,5.236,4.245,9.481,9.482,9.481    h123.259V493.037z" fill="#FFFFFF"/>
	</g>
</g>
<g>
	<g>
		<path d="M337.249,267.167L213.99,181.833c-2.9-2.007-6.674-2.241-9.797-0.602c-3.124,1.637-5.081,4.873-5.081,8.398v170.667    c0,3.525,1.957,6.761,5.081,8.398c1.383,0.725,2.893,1.083,4.399,1.083c1.895,0,3.782-0.567,5.398-1.685l123.259-85.333    c2.558-1.771,4.084-4.685,4.084-7.796C341.333,271.852,339.807,268.938,337.249,267.167z M218.074,342.201V207.725l97.12,67.238    L218.074,342.201z" fill="#FFFFFF"/>
	</g>
</g>
<g>
</g>
<g>
</g>
<g>
</g>
<g>
</g>
<g>
</g>
<g>
</g>
<g>
</g>
<g>
</g>
<g>
</g>
<g>
</g>
<g>
</g>
<g>
</g>
<g>
</g>
<g>
</g>
<g>
</g>
</svg>
