<?xml version="1.0" encoding="iso-8859-1"?>
<!-- Generator: Adobe Illustrator 19.0.0, SVG Export Plug-In . SVG Version: 6.00 Build 0)  -->
<svg version="1.1" id="Layer_1" xmlns="http://www.w3.org/2000/svg" xmlns:xlink="http://www.w3.org/1999/xlink" x="0px" y="0px"
	 viewBox="0 0 496.158 496.158" style="enable-background:new 0 0 496.158 496.158;" xml:space="preserve">
<path style="fill:#E04F5F;" d="M496.158,248.085c0-137.022-111.069-248.082-248.075-248.082C111.07,0.003,0,111.063,0,248.085
	c0,137.001,111.07,248.07,248.083,248.07C385.089,496.155,496.158,385.086,496.158,248.085z"/>
<path style="fill:#FFFFFF;" d="M404.191,338.019c0,7.498-6.077,13.574-13.573,13.574H105.541c-7.497,0-13.574-6.076-13.574-13.574
	v-179.88c0-7.498,6.077-13.574,13.574-13.574h285.077c7.496,0,13.573,6.076,13.573,13.574V338.019z"/>
<path style="fill:#E04F5F;" d="M335.494,239.131l-123.131-75.607c-3.361-2.063-7.785-2.154-11.225-0.227
	c-3.504,1.961-5.682,5.672-5.682,9.687V323.6c0,4.005,2.171,7.715,5.665,9.678c1.654,0.93,3.536,1.421,5.435,1.421
	c2.039,0,4.036-0.562,5.775-1.62l123.129-75.01c3.277-1.996,5.317-5.621,5.324-9.459
	C340.792,244.77,338.766,241.138,335.494,239.131z"/>
<g>
</g>
<g>
</g>
<g>
</g>
<g>
</g>
<g>
</g>
<g>
</g>
<g>
</g>
<g>
</g>
<g>
</g>
<g>
</g>
<g>
</g>
<g>
</g>
<g>
</g>
<g>
</g>
<g>
</g>
</svg>
