<?xml version="1.0" encoding="iso-8859-1"?>
<!-- Generator: Adobe Illustrator 19.0.0, SVG Export Plug-In . SVG Version: 6.00 Build 0)  -->
<svg version="1.1" id="Layer_1" xmlns="http://www.w3.org/2000/svg" xmlns:xlink="http://www.w3.org/1999/xlink" x="0px" y="0px"
	 viewBox="0 0 512 512" style="enable-background:new 0 0 512 512;" xml:space="preserve">
<path style="fill:#14662D;" d="M511.344,274.266C511.77,268.231,512,262.143,512,256C512,114.615,397.385,0,256,0S0,114.615,0,256
	c0,117.769,79.53,216.949,187.809,246.801L511.344,274.266z"/>
<path style="fill:#0A3E1A;" d="M511.344,274.266L314.991,77.913L119.096,434.087l68.714,68.714C209.522,508.787,232.385,512,256,512
	C391.243,512,501.976,407.125,511.344,274.266z"/>
<polygon style="fill:#FFFFFF;" points="278.328,333.913 255.711,77.913 119.096,77.913 119.096,311.652 "/>
<polygon style="fill:#E8E6E6;" points="392.904,311.652 392.904,155.826 337.252,133.565 314.991,77.913 255.711,77.913 
	256.067,333.913 "/>
<polygon style="fill:#FFFFFF;" points="314.991,155.826 314.991,77.913 392.904,155.826 "/>
<rect x="119.096" y="311.652" style="fill:#178F3C;" width="273.809" height="122.435"/>
<g>
	<path style="fill:#FFFFFF;" d="M235.786,399.362h-16.12l-11.428-16.877l-11.428,16.877h-15.666l18.921-27.094l-17.71-25.882h15.666
		l10.217,15.439l10.217-15.439h15.817l-17.483,25.276L235.786,399.362z"/>
	<path style="fill:#FFFFFF;" d="M279.458,388.086v11.276h-35.948v-52.975h13.471v41.699H279.458z"/>
	<path style="fill:#FFFFFF;" d="M329.032,351.684l-5.071,10.519c-5.6-3.255-12.638-5.524-16.952-5.524
		c-3.482,0-5.827,1.287-5.827,3.86c0,9.157,28.001,3.936,28.001,23.082c0,10.595-9.384,16.196-21.19,16.196
		c-8.854,0-17.936-3.33-24.218-8.476l5.221-10.368c5.449,4.768,13.623,7.947,19.148,7.947c4.237,0,6.886-1.589,6.886-4.617
		c0-9.384-28.001-3.783-28.001-22.552c0-9.763,8.4-15.969,21.116-15.969C315.789,345.781,323.584,348.128,329.032,351.684z"/>
</g>
<g>
</g>
<g>
</g>
<g>
</g>
<g>
</g>
<g>
</g>
<g>
</g>
<g>
</g>
<g>
</g>
<g>
</g>
<g>
</g>
<g>
</g>
<g>
</g>
<g>
</g>
<g>
</g>
<g>
</g>
</svg>
